<?xml version="1.0" encoding="UTF-8" standalone="no"?>
<svg
   xmlns:dc="http://purl.org/dc/elements/1.1/"
   xmlns:cc="http://creativecommons.org/ns#"
   xmlns:rdf="http://www.w3.org/1999/02/22-rdf-syntax-ns#"
   xmlns:svg="http://www.w3.org/2000/svg"
   xmlns="http://www.w3.org/2000/svg"
   xmlns:sodipodi="http://sodipodi.sourceforge.net/DTD/sodipodi-0.dtd"
   xmlns:inkscape="http://www.inkscape.org/namespaces/inkscape"
   version="1.0"
   id="svg2"
   sodipodi:version="0.32"
   inkscape:version="0.92.4 (5da689c313, 2019-01-14)"
   width="720"
   height="460"
   sodipodi:docname="Normal_Distribution_PDF.svg"
   inkscape:output_extension="org.inkscape.output.svg.inkscape">
  <sodipodi:namedview
     inkscape:window-height="1038"
     inkscape:window-width="1920"
     inkscape:pageshadow="2"
     inkscape:pageopacity="0.0"
     guidetolerance="10.0"
     gridtolerance="10000"
     objecttolerance="10.0"
     borderopacity="1.0"
     bordercolor="#666666"
     pagecolor="#ffffff"
     id="base"
     inkscape:zoom="1.4142136"
     inkscape:cx="391.0545"
     inkscape:cy="259.62495"
     inkscape:window-x="0"
     inkscape:window-y="18"
     inkscape:current-layer="layer1"
     width="720px"
     height="460px"
     showgrid="false"
     inkscape:grid-points="true"
     showguides="true"
     inkscape:guide-bbox="true"
     inkscape:object-nodes="true"
     fit-margin-top="5"
     fit-margin-left="5"
     fit-margin-right="5"
     fit-margin-bottom="5"
     inkscape:window-maximized="0">
    <inkscape:grid
       id="GridFromPre046Settings"
       type="xygrid"
       originx="0"
       originy="70"
       spacingx="5"
       spacingy="5"
       color="#0000ff"
       empcolor="#0000ff"
       opacity="0.2"
       empopacity="0.4"
       empspacing="5"
       visible="true"
       enabled="true"
       snapvisiblegridlinesonly="true" />
  </sodipodi:namedview>
  <metadata
     id="metadata2112">
    <rdf:RDF>
      <cc:Work
         rdf:about="">
        <dc:format>image/svg+xml</dc:format>
        <dc:type
           rdf:resource="http://purl.org/dc/dcmitype/StillImage" />
      </cc:Work>
    </rdf:RDF>
  </metadata>
  <defs
     id="defs2102">
    <inkscape:perspective
       sodipodi:type="inkscape:persp3d"
       inkscape:vp_x="0 : 230 : 1"
       inkscape:vp_y="0 : 1000 : 0"
       inkscape:vp_z="720 : 230 : 1"
       inkscape:persp3d-origin="360 : 153.33333 : 1"
       id="perspective289" />
    <clipPath
       id="cp3">
      <polygon
         id="polygon1797"
         points="73,190 73,203.563 95,203.563 95,190 73,190 " />
    </clipPath>
    <clipPath
       id="cp5">
      <polygon
         id="polygon1821"
         points="73,190 73,203.563 95,203.563 95,190 73,190 " />
    </clipPath>
    <clipPath
       id="cp7">
      <polygon
         id="polygon1845"
         points="73,190 73,203.563 88,203.563 88,190 73,190 " />
    </clipPath>
    <clipPath
       id="cp9">
      <polygon
         id="polygon1867"
         points="73,190 73,203.563 88,203.563 88,190 73,190 " />
    </clipPath>
    <clipPath
       id="cp10">
      <polygon
         id="polygon1874"
         points="74,13 74,364 434,364 434,13 74,13 " />
    </clipPath>
    <clipPath
       id="cp11">
      <polygon
         id="polygon1889"
         points="73,190 73,203.563 88,203.563 88,190 73,190 " />
    </clipPath>
    <clipPath
       id="cp13">
      <polygon
         id="polygon1907"
         points="74,190 74,204 95,204 95,190 74,190 " />
    </clipPath>
    <clipPath
       id="cp15">
      <polygon
         id="polygon1931"
         points="74,190 74,204 95,204 95,190 74,190 " />
    </clipPath>
    <clipPath
       id="cp17">
      <polygon
         id="polygon1955"
         points="73,190 73,204 88,204 88,190 73,190 " />
    </clipPath>
    <clipPath
       id="cp19">
      <polygon
         id="polygon1977"
         points="73,190 73,204 88,204 88,190 73,190 " />
    </clipPath>
    <clipPath
       id="cp21">
      <polygon
         id="polygon1999"
         points="73,190 73,204 88,204 88,190 73,190 " />
    </clipPath>
  </defs>
  <g
     clip-path="url(#cp3)"
     id="g8871"
     transform="matrix(1.364137,0,0,1.406645,-19.376016,57.579514)">
    <clipPath
       id="clipPath9201">
      <polygon
         id="polygon8874"
         points="73,126 73,140 87,140 87,126 73,126 " />
    </clipPath>
    <text
       font-size="10px"
       style="font-size:10px;line-height:0%;font-family:SVGTimes;fill:#000000"
       id="text8876"
       y="137"
       x="74">-</text>
    <text
       font-size="10px"
       style="font-size:10px;line-height:0%;font-family:'Times New Roman';fill:#000000"
       id="text8878"
       y="137"
       x="80.5">3</text>
  </g>
  <g
     clip-path="url(#cp5)"
     id="g8895"
     transform="matrix(1.364137,0,0,1.406645,58.936361,57.579514)">
    <clipPath
       id="clipPath9216">
      <polygon
         id="polygon8898"
         points="73,126 73,140 87,140 87,126 73,126 " />
    </clipPath>
    <text
       font-size="10px"
       style="font-size:10px;line-height:0%;font-family:SVGTimes;fill:#000000"
       id="text8900"
       y="137"
       x="74">-</text>
    <text
       font-size="10px"
       style="font-size:10px;line-height:0%;font-family:'Times New Roman';fill:#000000"
       id="text8902"
       y="137"
       x="80.5">2</text>
  </g>
  <g
     clip-path="url(#cp7)"
     id="g8919"
     transform="matrix(1.364137,0,0,1.406645,137.24874,57.579514)">
    <clipPath
       id="clipPath9231">
      <polygon
         id="polygon8922"
         points="73,126 73,140 87,140 87,126 73,126 " />
    </clipPath>
    <text
       font-size="10px"
       style="font-size:10px;line-height:0%;font-family:SVGTimes;fill:#000000"
       id="text8924"
       y="137"
       x="74">-</text>
    <text
       font-size="10px"
       style="font-size:10px;line-height:0%;font-family:'Times New Roman';fill:#000000"
       id="text8926"
       y="137"
       x="80.5">1</text>
  </g>
  <g
     clip-path="url(#cp9)"
     transform="matrix(1.364137,0,0,1.406645,-21.116655,57.614261)"
     id="g8943">
    <clipPath
       id="clipPath9246">
      <polygon
         id="polygon8946"
         points="74,13 74,236 434,236 434,13 74,13 " />
    </clipPath>
    <polyline
       style="fill:none;stroke:#000000;stroke-width:0.13535678px;stroke-opacity:1"
       id="polyline8948"
       points="265,124 265,121.563 " />
    <polyline
       style="fill:none;stroke:#000000;stroke-width:0.13535678px;stroke-opacity:1"
       id="polyline8950"
       points="276.438,124 276.438,121.563 " />
    <polyline
       style="fill:none;stroke:#000000;stroke-width:0.13535678px;stroke-opacity:1"
       id="polyline8952"
       points="287.938,124 287.938,121.563 " />
    <polyline
       style="fill:none;stroke:#000000;stroke-width:0.13535678px;stroke-opacity:1"
       id="polyline8954"
       points="299.438,124 299.438,121.563 " />
    <polyline
       style="fill:none;stroke:#000000;stroke-width:0.13535678px;stroke-opacity:1"
       id="polyline8956"
       points="310.938,124 310.938,120 " />
  </g>
  <g
     clip-path="url(#cp10)"
     id="g8958"
     transform="matrix(1.364137,0,0,1.406645,298.64797,57.579514)">
    <clipPath
       id="clipPath9255">
      <polygon
         id="polygon8961"
         points="73,126 73,140 80,140 80,126 73,126 " />
    </clipPath>
  </g>
  <g
     clip-path="url(#cp11)"
     transform="matrix(1.364137,0,0,1.406645,-21.116655,57.614261)"
     id="g8965">
    <clipPath
       id="clipPath9260">
      <polygon
         id="polygon8968"
         points="74,13 74,236 434,236 434,13 74,13 " />
    </clipPath>
    <polyline
       style="fill:none;stroke:#000000;stroke-width:0.13535678px;stroke-opacity:1"
       id="polyline8970"
       points="322.375,124 322.375,121.563 " />
    <polyline
       style="fill:none;stroke:#000000;stroke-width:0.13535678px;stroke-opacity:1"
       id="polyline8972"
       points="333.875,124 333.875,121.563 " />
    <polyline
       style="fill:none;stroke:#000000;stroke-width:0.13535678px;stroke-opacity:1"
       id="polyline8974"
       points="345.375,124 345.375,121.563 " />
    <polyline
       style="fill:none;stroke:#000000;stroke-width:0.13535678px;stroke-opacity:1"
       id="polyline8976"
       points="356.813,124 356.813,121.563 " />
    <polyline
       style="fill:none;stroke:#000000;stroke-width:0.13535678px;stroke-opacity:1"
       id="polyline8978"
       points="368.313,124 368.313,120 " />
  </g>
  <g
     clip-path="url(#cp13)"
     transform="matrix(1.364137,0,0,1.406645,-21.116655,57.614261)"
     id="g8987">
    <clipPath
       id="clipPath9274">
      <polygon
         id="polygon8990"
         points="74,13 74,236 434,236 434,13 74,13 " />
    </clipPath>
    <polyline
       style="fill:none;stroke:#000000;stroke-width:0.13535678px;stroke-opacity:1"
       id="polyline8992"
       points="379.813,124 379.813,121.563 " />
    <polyline
       style="fill:none;stroke:#000000;stroke-width:0.13535678px;stroke-opacity:1"
       id="polyline8994"
       points="391.25,124 391.25,121.563 " />
    <polyline
       style="fill:none;stroke:#000000;stroke-width:0.13535678px;stroke-opacity:1"
       id="polyline8996"
       points="402.75,124 402.75,121.563 " />
    <polyline
       style="fill:none;stroke:#000000;stroke-width:0.13535678px;stroke-opacity:1"
       id="polyline8998"
       points="414.25,124 414.25,121.563 " />
    <polyline
       style="fill:none;stroke:#000000;stroke-width:0.13535678px;stroke-opacity:1"
       id="polyline9000"
       points="425.75,124 425.75,120 " />
  </g>
  <g
     clip-path="url(#cp17)"
     transform="matrix(1.364137,0,0,1.406645,-21.116655,57.614261)"
     id="g9029">
    <clipPath
       id="clipPath9301">
      <polygon
         id="polygon9032"
         points="74,13 74,236 434,236 434,13 74,13 " />
    </clipPath>
    <polyline
       style="fill:none;stroke:#000000;stroke-width:0.13535678px;stroke-opacity:1"
       id="polyline9034"
       points="253.5,219.5 255.875,219.5 " />
    <polyline
       style="fill:none;stroke:#000000;stroke-width:0.13535678px;stroke-opacity:1"
       id="polyline9036"
       points="253.5,212.688 255.875,212.688 " />
    <polyline
       style="fill:none;stroke:#000000;stroke-width:0.13535678px;stroke-opacity:1"
       id="polyline9038"
       points="253.5,205.875 255.875,205.875 " />
    <polyline
       style="fill:none;stroke:#000000;stroke-width:0.13535678px;stroke-opacity:1"
       id="polyline9040"
       points="253.5,199 255.875,199 " />
    <polyline
       style="fill:none;stroke:#000000;stroke-width:0.13535678px;stroke-opacity:1"
       id="polyline9042"
       points="253.5,192.188 257.5,192.188 " />
  </g>
  <g
     clip-path="url(#cp19)"
     transform="matrix(1.364137,0,0,1.406645,-21.116655,57.614261)"
     id="g9053">
    <clipPath
       id="clipPath9316">
      <polygon
         id="polygon9056"
         points="74,13 74,236 434,236 434,13 74,13 " />
    </clipPath>
    <polyline
       style="fill:none;stroke:#000000;stroke-width:0.13535678px;stroke-opacity:1"
       id="polyline9058"
       points="253.5,185.375 255.875,185.375 " />
    <polyline
       style="fill:none;stroke:#000000;stroke-width:0.13535678px;stroke-opacity:1"
       id="polyline9060"
       points="253.5,178.563 255.875,178.563 " />
    <polyline
       style="fill:none;stroke:#000000;stroke-width:0.13535678px;stroke-opacity:1"
       id="polyline9062"
       points="253.5,171.75 255.875,171.75 " />
    <polyline
       style="fill:none;stroke:#000000;stroke-width:0.13535678px;stroke-opacity:1"
       id="polyline9064"
       points="253.5,164.938 255.875,164.938 " />
    <polyline
       style="fill:none;stroke:#000000;stroke-width:0.13535678px;stroke-opacity:1"
       id="polyline9066"
       points="253.5,158.063 257.5,158.063 " />
  </g>
  <g
     clip-path="url(#cp21)"
     transform="matrix(1.364137,0,0,1.406645,-21.116655,57.614261)"
     id="g9077">
    <clipPath
       id="clipPath9331">
      <polygon
         id="polygon9080"
         points="74,13 74,236 434,236 434,13 74,13 " />
    </clipPath>
    <polyline
       style="fill:none;stroke:#000000;stroke-width:0.13535678px;stroke-opacity:1"
       id="polyline9082"
       points="253.5,151.25 255.875,151.25 " />
    <polyline
       style="fill:none;stroke:#000000;stroke-width:0.13535678px;stroke-opacity:1"
       id="polyline9084"
       points="253.5,144.438 255.875,144.438 " />
    <polyline
       style="fill:none;stroke:#000000;stroke-width:0.13535678px;stroke-opacity:1"
       id="polyline9086"
       points="253.5,137.625 255.875,137.625 " />
    <polyline
       style="fill:none;stroke:#000000;stroke-width:0.13535678px;stroke-opacity:1"
       id="polyline9088"
       points="253.5,130.813 255.875,130.813 " />
    <polyline
       style="fill:none;stroke:#000000;stroke-width:0.13535678px;stroke-opacity:1"
       id="polyline9090"
       points="253.5,124 257.5,124 " />
  </g>
  <g
     clip-path="url(#cp3)"
     transform="translate(714,63)"
     id="g10133">
    <clipPath
       id="clipPath10481">
      <polygon
         id="polygon10136"
         points="74,13 74,236 434,236 434,13 74,13 " />
    </clipPath>
    <polyline
       style="fill:none;stroke:#000000;stroke-width:0.1875px;stroke-opacity:1"
       id="polyline10138"
       points="83.9375,124 83.9375,121.563 " />
    <polyline
       style="fill:none;stroke:#000000;stroke-width:0.1875px;stroke-opacity:1"
       id="polyline10140"
       points="94.5,124 94.5,120 " />
  </g>
  <g
     clip-path="url(#cp5)"
     transform="translate(714,63)"
     id="g10151">
    <clipPath
       id="clipPath10493">
      <polygon
         id="polygon10154"
         points="74,13 74,236 434,236 434,13 74,13 " />
    </clipPath>
    <polyline
       style="fill:none;stroke:#000000;stroke-width:0.1875px;stroke-opacity:1"
       id="polyline10156"
       points="105.125,124 105.125,121.563 " />
    <polyline
       style="fill:none;stroke:#000000;stroke-width:0.1875px;stroke-opacity:1"
       id="polyline10158"
       points="115.75,124 115.75,121.563 " />
    <polyline
       style="fill:none;stroke:#000000;stroke-width:0.1875px;stroke-opacity:1"
       id="polyline10160"
       points="126.313,124 126.313,121.563 " />
    <polyline
       style="fill:none;stroke:#000000;stroke-width:0.1875px;stroke-opacity:1"
       id="polyline10162"
       points="136.938,124 136.938,121.563 " />
    <polyline
       style="fill:none;stroke:#000000;stroke-width:0.1875px;stroke-opacity:1"
       id="polyline10164"
       points="147.5,124 147.5,120 " />
  </g>
  <g
     clip-path="url(#cp7)"
     transform="translate(714,63)"
     id="g10175">
    <clipPath
       id="clipPath10508">
      <polygon
         id="polygon10178"
         points="74,13 74,236 434,236 434,13 74,13 " />
    </clipPath>
    <polyline
       style="fill:none;stroke:#000000;stroke-width:0.1875px;stroke-opacity:1"
       id="polyline10180"
       points="158.125,124 158.125,121.563 " />
    <polyline
       style="fill:none;stroke:#000000;stroke-width:0.1875px;stroke-opacity:1"
       id="polyline10182"
       points="168.688,124 168.688,121.563 " />
    <polyline
       style="fill:none;stroke:#000000;stroke-width:0.1875px;stroke-opacity:1"
       id="polyline10184"
       points="179.313,124 179.313,121.563 " />
    <polyline
       style="fill:none;stroke:#000000;stroke-width:0.1875px;stroke-opacity:1"
       id="polyline10186"
       points="189.938,124 189.938,121.563 " />
    <polyline
       style="fill:none;stroke:#000000;stroke-width:0.1875px;stroke-opacity:1"
       id="polyline10188"
       points="200.5,124 200.5,120 " />
  </g>
  <g
     clip-path="url(#cp9)"
     transform="translate(714,63)"
     id="g10199">
    <clipPath
       id="clipPath10523">
      <polygon
         id="polygon10202"
         points="74,13 74,236 434,236 434,13 74,13 " />
    </clipPath>
    <polyline
       style="fill:none;stroke:#000000;stroke-width:0.1875px;stroke-opacity:1"
       id="polyline10204"
       points="211.125,124 211.125,121.563 " />
    <polyline
       style="fill:none;stroke:#000000;stroke-width:0.1875px;stroke-opacity:1"
       id="polyline10206"
       points="221.688,124 221.688,121.563 " />
    <polyline
       style="fill:none;stroke:#000000;stroke-width:0.1875px;stroke-opacity:1"
       id="polyline10208"
       points="232.313,124 232.313,121.563 " />
    <polyline
       style="fill:none;stroke:#000000;stroke-width:0.1875px;stroke-opacity:1"
       id="polyline10210"
       points="242.875,124 242.875,121.563 " />
    <polyline
       style="fill:none;stroke:#000000;stroke-width:0.1875px;stroke-opacity:1"
       id="polyline10212"
       points="253.5,124 253.5,120 " />
  </g>
  <g
     clip-path="url(#cp11)"
     id="g10229"
     transform="translate(943.992,62.9753)">
    <clipPath
       id="clipPath10541">
      <polygon
         id="polygon10232"
         points="73,126 73,140 80,140 80,126 73,126 " />
    </clipPath>
    <text
       font-size="10px"
       style="font-size:10px;line-height:0%;font-family:'Times New Roman';fill:#000000"
       id="text10234"
       y="137"
       x="74">1</text>
  </g>
  <g
     clip-path="url(#cp13)"
     id="g10251"
     transform="translate(996.984,62.9753)">
    <clipPath
       id="clipPath10555">
      <polygon
         id="polygon10254"
         points="73,126 73,140 80,140 80,126 73,126 " />
    </clipPath>
    <text
       font-size="10px"
       style="font-size:10px;line-height:0%;font-family:'Times New Roman';fill:#000000"
       id="text10256"
       y="137"
       x="74">2</text>
  </g>
  <g
     clip-path="url(#cp15)"
     id="g10273"
     transform="translate(1049.976,62.9753)">
    <clipPath
       id="clipPath10569">
      <polygon
         id="polygon10276"
         points="73,126 73,140 80,140 80,126 73,126 " />
    </clipPath>
    <text
       font-size="10px"
       style="font-size:10px;line-height:0%;font-family:'Times New Roman';fill:#000000"
       id="text10278"
       y="137"
       x="74">3</text>
  </g>
  <g
     clip-path="url(#cp17)"
     id="g10297"
     transform="translate(878.5,142.67554)">
    <clipPath
       id="clipPath10584">
      <polygon
         id="polygon10300"
         points="73,126 73,140 87,140 87,126 73,126 " />
    </clipPath>
    <text
       font-size="10px"
       style="font-size:10px;line-height:0%;font-family:SVGTimes;fill:#000000"
       id="text10302"
       y="137"
       x="74">-</text>
    <text
       font-size="10px"
       style="font-size:10px;line-height:0%;font-family:'Times New Roman';fill:#000000"
       id="text10304"
       y="137"
       x="80.5">3</text>
  </g>
  <g
     clip-path="url(#cp19)"
     id="g10321"
     transform="translate(878.5,113.10879)">
    <clipPath
       id="clipPath10599">
      <polygon
         id="polygon10324"
         points="73,126 73,140 87,140 87,126 73,126 " />
    </clipPath>
    <text
       font-size="10px"
       style="font-size:10px;line-height:0%;font-family:SVGTimes;fill:#000000"
       id="text10326"
       y="137"
       x="74">-</text>
    <text
       font-size="10px"
       style="font-size:10px;line-height:0%;font-family:'Times New Roman';fill:#000000"
       id="text10328"
       y="137"
       x="80.5">2</text>
  </g>
  <g
     clip-path="url(#cp21)"
     id="g10345"
     transform="translate(878.5,83.54204)">
    <clipPath
       id="clipPath10614">
      <polygon
         id="polygon10348"
         points="73,126 73,140 87,140 87,126 73,126 " />
    </clipPath>
    <text
       font-size="10px"
       style="font-size:10px;line-height:0%;font-family:SVGTimes;fill:#000000"
       id="text10350"
       y="137"
       x="74">-</text>
    <text
       font-size="10px"
       style="font-size:10px;line-height:0%;font-family:'Times New Roman';fill:#000000"
       id="text10352"
       y="137"
       x="80.5">1</text>
  </g>
  <g
     inkscape:label="Grid"
     style="display:inline"
     id="layer1"
     inkscape:groupmode="layer">
    <rect
       height="400.00778"
       x="70"
       y="9.9949808"
       width="640"
       id="rect3248"
       style="fill:none;stroke:#000000;stroke-width:1.99999964;stroke-opacity:1" />
  </g>
  <g
     inkscape:label="Labels"
     style="display:inline"
     id="layer2"
     inkscape:groupmode="layer" />
  <g
     inkscape:label="Plot"
     style="display:inline"
     id="layer3"
     inkscape:groupmode="layer">
    <path
       id="path2842"
       style="fill:none;fill-rule:evenodd;stroke:#cc0000;stroke-width:4;stroke-linecap:butt;stroke-linejoin:miter;stroke-opacity:1;stroke-miterlimit:4;stroke-dasharray:none"
       d="M 690.00556,390.00048 C 572.43012,390.00048 580.21168,389.02653 565.9561,388.05084 C 510.67824,384.2675 485.59061,352.10721 463.63019,321.97928 C 435.7852,283.77818 415.04993,246.05331 390.00383,246.05331 C 364.95773,246.05331 344.22246,283.77818 316.37747,321.97928 C 294.41705,352.10721 269.32942,384.2675 214.05156,388.05084 C 199.79598,389.02653 207.57754,390.00048 90.002096,390.00048"
       sodipodi:nodetypes="csssssc" />
    <path
       id="path2846"
       style="fill:none;fill-rule:evenodd;stroke:#204a87;stroke-width:4;stroke-linecap:butt;stroke-linejoin:miter;stroke-opacity:1;stroke-miterlimit:4;stroke-dasharray:none"
       d="M 690.00556,390.52604 L 500.23211,390.4186 C 478.08687,390.40606 468.58858,387.27973 463.7801,383.16076 C 441.11533,363.74599 435.59626,314.38284 424.03221,243.95886 C 409.46349,155.23673 402.34229,68.387971 390.00383,68.387971 C 377.66537,68.387971 370.54417,155.23673 355.97545,243.95886 C 344.4114,314.38284 338.89233,363.74599 316.22756,383.16076 C 311.41908,387.27973 301.92079,390.40606 279.77555,390.4186 L 90.002096,390.52604"
       sodipodi:nodetypes="ccssssscc" />
  </g>
</svg>
