<?xml version="1.0" encoding="UTF-8" standalone="no"?>
<!-- Created with Inkscape (http://www.inkscape.org/) -->

<svg
   xmlns:dc="http://purl.org/dc/elements/1.1/"
   xmlns:cc="http://creativecommons.org/ns#"
   xmlns:rdf="http://www.w3.org/1999/02/22-rdf-syntax-ns#"
   xmlns:svg="http://www.w3.org/2000/svg"
   xmlns="http://www.w3.org/2000/svg"
   xmlns:sodipodi="http://sodipodi.sourceforge.net/DTD/sodipodi-0.dtd"
   xmlns:inkscape="http://www.inkscape.org/namespaces/inkscape"
   width="162.80319mm"
   height="72.008827mm"
   viewBox="0 0 162.80319 72.008827"
   version="1.1"
   id="svg9445"
   sodipodi:docname="signature.svg"
   inkscape:version="0.92.5 (2060ec1f9f, 2020-04-08)"
   inkscape:export-filename="/home/laurent/Documents/thesis/pics/signature.png"
   inkscape:export-xdpi="300"
   inkscape:export-ydpi="300">
  <defs
     id="defs9439" />
  <sodipodi:namedview
     id="base"
     pagecolor="#ffffff"
     bordercolor="#666666"
     borderopacity="1.0"
     inkscape:pageopacity="0.0"
     inkscape:pageshadow="2"
     inkscape:zoom="0.35"
     inkscape:cx="-258.70573"
     inkscape:cy="51.969887"
     inkscape:document-units="mm"
     inkscape:current-layer="layer1"
     showgrid="false"
     inkscape:window-width="1245"
     inkscape:window-height="1355"
     inkscape:window-x="14"
     inkscape:window-y="40"
     inkscape:window-maximized="0"
     fit-margin-top="0"
     fit-margin-left="0"
     fit-margin-right="0"
     fit-margin-bottom="0" />
  <metadata
     id="metadata9442">
    <rdf:RDF>
      <cc:Work
         rdf:about="">
        <dc:format>image/svg+xml</dc:format>
        <dc:type
           rdf:resource="http://purl.org/dc/dcmitype/StillImage" />
        <dc:title></dc:title>
      </cc:Work>
    </rdf:RDF>
  </metadata>
  <g
     inkscape:label="Layer 1"
     inkscape:groupmode="layer"
     id="layer1"
     transform="translate(-35.187319,-90.574873)">
    <path
       style="fill:#000000;stroke-width:0.24531397"
       d="m 65.462983,162.29985 c -0.32121,-0.248 -0.40705,-0.86962 -0.44887,-3.25041 -0.05,-2.84476 0.003,-3.73178 0.49394,-8.21802 0.36572,-3.34429 0.44191,-3.76862 0.79281,-4.41565 0.64198,-1.18376 1.24177,-1.96259 1.51756,-1.97056 0.63502,-0.0183 2.11586,-2.16444 2.39127,-3.46552 0.15252,-0.72053 0.41642,-1.58603 0.58644,-1.92334 0.17002,-0.33731 0.39134,-1.10763 0.49181,-1.71184 0.10048,-0.60421 0.35847,-1.36684 0.57331,-1.69473 0.38833,-0.59267 0.38635,-0.59514 -0.33766,-0.42079 -5.36457,1.29181 -8.13283,1.17124 -9.86907,-0.42988 -0.96218,-0.88728 -1.28506,-1.75613 -1.28506,-3.45797 0,-0.88369 -0.0828,-1.60756 -0.18399,-1.6086 -1.36733,-0.0139 -5.43426,-0.28262 -5.74176,-0.37936 -0.31436,-0.0989 -0.43965,0.0823 -0.55424,0.80134 -0.33184,2.08252 -0.60048,6.46881 -0.48646,7.94285 0.14821,1.91602 0.82826,5.41063 1.11512,5.73034 0.11501,0.12817 0.20911,0.41952 0.20911,0.64743 0,0.22792 0.19318,0.64558 0.4293,0.92814 l 0.4293,0.51375 1.08857,-0.49517 c 1.71792,-0.78144 2.26522,-0.30518 1.05792,0.92061 -1.74829,1.77506 -3.54435,1.77187 -4.42563,-0.008 -1.00917,-2.03803 -1.99457,-7.26477 -2.01965,-10.71266 -0.008,-1.10099 -0.0648,-1.28097 -0.30865,-0.97826 -0.41882,0.5199 -1.54542,0.98066 -1.80196,0.73698 -0.11775,-0.11184 -0.82123,-0.26189 -1.56331,-0.33345 -1.27724,-0.12316 -2.78123,-0.681 -3.06234,-1.13586 -0.0706,-0.1142 -0.0561,-0.39591 0.0322,-0.62601 0.13358,-0.3481 0.35003,-0.38907 1.28869,-0.2439 2.63522,0.40753 4.07641,0.2204 4.27362,-0.55488 0.1648,-0.64789 0.0516,-1.77354 -0.30955,-3.07775 -0.46986,-1.69685 -0.39952,-1.67761 -7.43555,-2.03333 -2.38682,-0.12067 -3.37307,-0.0919 -3.37307,0.0985 0,0.14795 0.11039,0.33722 0.24531,0.4206 0.13493,0.0834 0.24532,0.32011 0.24532,0.52604 0,0.20594 0.38637,0.7165 0.8586,1.13458 0.47223,0.41808 0.8586,0.84173 0.8586,0.94145 0,0.0997 0.34646,0.52776 0.7699,0.95121 0.54805,0.54805 0.69409,0.84574 0.50677,1.03305 -0.33334,0.33335 -3.14591,-1.72734 -3.77943,-2.76908 -0.23967,-0.39411 -0.94902,-1.24019 -1.57633,-1.88019 -1.93376,-1.97286 -2.07765,-2.16515 -1.92256,-2.56931 0.21606,-0.56306 1.2459,-0.75015 1.89372,-0.34403 0.72122,0.45214 2.6195,0.63937 7.88387,0.77761 3.84621,0.101 5.06916,-0.0369 3.99207,-0.45025 -0.18004,-0.0691 -0.34171,-0.50772 -0.35927,-0.97473 -0.0312,-0.83065 -0.0148,-0.84558 0.75665,-0.6859 0.61685,0.12769 0.79484,0.29416 0.81737,0.76451 0.0528,1.10145 0.3814,1.67191 1.10933,1.92568 0.63726,0.22214 0.74467,0.18832 0.92465,-0.29122 0.112,-0.2984 0.26979,-1.09451 0.35065,-1.76913 0.21075,-1.75834 0.57858,-3.97762 0.89449,-5.3969 0.15015,-0.67462 0.43106,-2.05451 0.62425,-3.06643 0.58312,-3.05452 0.83564,-4.19161 0.98424,-4.43204 0.21794,-0.35265 -0.91651,-0.25434 -1.60468,0.13905 -0.3373,0.19282 -0.95767,0.3545 -1.37859,0.35928 -0.42093,0.005 -1.46964,0.23674 -2.33049,0.51546 -1.14666,0.37126 -2.17128,0.50204 -3.83199,0.4891 -1.94925,-0.0152 -2.45771,-0.11128 -3.62923,-0.68585 -1.17182,-0.57471 -1.35231,-0.75466 -1.29023,-1.28637 0.0499,-0.42766 0.22863,-0.62612 0.57978,-0.6439 0.27919,-0.0141 0.89865,-0.0991 1.37659,-0.18873 0.63164,-0.11849 0.95345,-0.0612 1.1783,0.2097 0.25018,0.30145 0.2473,0.37271 -0.0151,0.37271 -0.69104,0 0.17838,0.47138 1.15811,0.6279 l 1.01644,0.16238 0.15477,-0.9471 c 0.0851,-0.5209 0.044,-1.32487 -0.0915,-1.7866 -0.15753,-0.53698 -0.16148,-0.94167 -0.011,-1.12302 0.15018,-0.18095 0.15018,-0.58027 0,-1.10391 -0.16141,-0.56282 -0.15041,-0.92268 0.035,-1.14614 0.14869,-0.17916 0.18811,-0.32574 0.0876,-0.32574 -0.1005,0 -0.0614,-0.14614 0.0868,-0.32475 0.18646,-0.22466 0.19095,-0.40331 0.0146,-0.57967 -0.14021,-0.14021 -0.24926,-0.57363 -0.24235,-0.96315 0.0844,-4.754131 0.2676,-10.661851 0.3471,-11.195401 0.0553,-0.37104 0.11433,-0.78501 0.13119,-0.91993 0.0339,-0.27125 1.3263,-0.33979 1.58219,-0.0839 0.0888,0.0888 0.0566,0.28771 -0.0715,0.44207 -0.27158,0.32723 -0.0588,1.35903 0.28026,1.35903 0.12715,0 0.16767,0.10276 0.09,0.22836 -0.0776,0.1256 -0.0393,0.2913 0.0852,0.36822 0.25903,0.16009 0.0684,1.12062 -0.22243,1.12062 -0.37302,0 -0.73821,2.35384 -0.65906,4.24799 0.0506,1.21121 -0.0268,2.063751 -0.21015,2.314501 -0.22578,0.30877 -0.21507,0.577 0.0482,1.20704 0.39924,0.95552 0.30068,3.5435 -0.17407,4.57041 -0.2735,0.59162 -0.25722,0.79017 0.11676,1.42326 0.23903,0.40465 0.37019,0.90359 0.29146,1.10877 -0.0787,0.20517 -0.023,0.59759 0.1239,0.87203 0.20309,0.37949 0.42321,0.46454 0.91905,0.35512 5.93869,-1.31054 6.66218,-1.56466 6.66218,-2.3401 0,-0.32695 0.37968,-2.0938 0.84374,-3.92633 0.964,-3.80683 1.64107,-6.787441 1.70419,-7.502211 0.0238,-0.26985 0.69704,-1.79157 1.49602,-3.38161 1.44696,-2.87957 1.45563,-2.89033 2.1965,-2.72761 1.04056,0.22855 1.78533,0.76631 1.93871,1.39984 0.3548,1.46546 0.75878,4.87826 0.73831,6.23703 -0.0243,1.61054 -0.77799,4.973171 -1.11471,4.973171 -0.10891,0 -0.19802,0.15207 -0.19802,0.33794 0,0.18586 -0.16559,0.47535 -0.36797,0.64332 -0.20239,0.16796 -0.36797,0.49653 -0.36797,0.73016 0,0.47019 -2.20869,2.71753 -3.92462,3.9933 -0.95944,0.71333 -1.15852,1.0243 -1.5249,2.38185 -0.39077,1.448 -0.39205,1.58286 -0.0175,1.85672 0.36697,0.26834 0.35597,0.32095 -0.12042,0.5759 -0.33093,0.17711 -0.58151,0.61875 -0.67946,1.19753 -0.0854,0.50432 -0.35889,1.74488 -0.60789,2.7568 -0.71911,2.92251 -0.7761,3.23214 -0.86896,4.72125 -0.0483,0.77523 -0.20242,1.6235 -0.3424,1.88506 -0.13998,0.26155 -0.25451,0.97746 -0.25451,1.59091 0,1.24702 -0.25655,1.09312 2.89848,1.73875 3.19401,0.65359 3.43482,0.5961 5.39727,-1.28865 2.83036,-2.71829 3.98935,-3.55317 4.72759,-3.40552 0.35348,0.0707 0.75128,0.02 0.88399,-0.11275 0.31454,-0.31455 2.33023,0.005 2.21487,0.35079 -0.0481,0.14438 -0.43877,0.35352 -0.86809,0.46477 -0.42933,0.11125 -0.78059,0.30951 -0.78059,0.44057 0,0.13107 -0.13088,0.2383 -0.29083,0.2383 -0.15996,0 -0.52557,0.22052 -0.81247,0.49005 -0.28689,0.26952 -0.84596,0.52906 -1.24238,0.57675 -0.69617,0.0837 -2.31529,1.27661 -2.31529,1.70577 0,0.48309 4.84651,-1.11384 5.22512,-1.72168 0.10789,-0.17322 0.34547,-0.31495 0.52795,-0.31495 0.18248,0 0.4421,-0.30357 0.57692,-0.67461 0.13481,-0.37104 0.40147,-0.88004 0.59255,-1.13112 0.32544,-0.4276 0.37353,-0.4304 0.75976,-0.0442 1.25278,1.25278 0.62139,2.48854 -1.92972,3.77679 -0.93769,0.47351 -2.11527,1.06665 -2.61685,1.31809 -0.50157,0.25144 -1.82315,0.65318 -2.93684,0.89276 -2.19238,0.47164 -2.32574,0.6063 -2.38226,2.40554 -0.0599,1.90702 2.90052,3.11458 6.17989,2.52078 0.83768,-0.15168 1.63344,-0.36616 1.76836,-0.47662 0.13493,-0.11047 0.7609,-0.27759 1.39106,-0.37139 1.16016,-0.17269 2.166,-0.84693 2.166,-1.45194 0,-0.18199 0.38636,-0.89257 0.85859,-1.57907 0.47223,-0.6865 0.8586,-1.46511 0.8586,-1.73025 0,-0.26514 0.1108,-0.55054 0.24622,-0.63423 0.13542,-0.0837 0.18161,-0.40957 0.10265,-0.72416 -0.20337,-0.81032 1.0909,-2.26474 1.7593,-1.97699 0.2572,0.11072 0.66834,0.17613 0.91365,0.14536 0.24532,-0.0308 0.66407,0.19545 0.93057,0.50272 0.38053,0.43876 0.45833,0.79706 0.36242,1.66925 -0.0672,0.61081 -0.29274,1.23532 -0.50127,1.3878 -0.20853,0.15248 -0.37914,0.53111 -0.37914,0.84139 0,0.56179 -2.10056,2.80586 -3.50049,3.73965 -0.42646,0.28446 -0.70556,0.74704 -0.81405,1.34923 -0.0908,0.50399 -0.24514,1.02674 -0.34298,1.16167 -0.0978,0.13492 -0.24016,0.46609 -0.31625,0.73594 -0.0761,0.26984 -0.36321,1.24621 -0.63804,2.1697 l -0.49968,1.67907 0.78659,-0.6425 c 0.43262,-0.35338 1.03497,-0.76791 1.33855,-0.92118 0.30357,-0.15327 0.55195,-0.37002 0.55195,-0.48166 0,-0.11164 0.85554,-0.87005 1.90119,-1.68535 3.26983,-2.54951 3.51765,-2.7876 4.11914,-3.9573 0.32264,-0.62743 1.0043,-1.64089 1.51481,-2.25215 0.51051,-0.61126 1.12653,-1.39501 1.36895,-1.74167 0.24241,-0.34666 0.64286,-0.63029 0.88989,-0.63029 0.24702,0 0.59902,-0.1806 0.78222,-0.40134 0.51548,-0.62112 2.11553,-1.56118 2.65725,-1.56118 0.26778,0 0.60632,0.22318 0.7523,0.49596 0.28442,0.53144 0.32243,0.48564 -4.72514,5.69348 -2.50833,2.58797 -2.50528,3.04889 0.0152,2.30033 0.6325,-0.18785 2.69548,-0.69632 4.5844,-1.12994 1.88892,-0.43362 3.72741,-0.94228 4.08553,-1.13035 0.35812,-0.18807 0.85488,-0.34262 1.10391,-0.34345 0.24903,-7.4e-4 0.73648,-0.14956 1.08323,-0.33051 0.34674,-0.18095 1.19516,-0.40391 1.88539,-0.49547 0.69022,-0.0916 1.56562,-0.32852 1.94535,-0.52658 0.89226,-0.46539 1.115937,-0.45544 1.822557,0.0811 0.56441,0.42853 2.26983,1.03395 3.2835,1.16563 0.26984,0.0351 1.15297,0.18632 1.9625,0.33613 2.3838,0.44114 2.99861,0.49346 6.99145,0.59492 4.31661,0.10969 8.89876,-0.18098 11.12355,-0.70562 0.83057,-0.19586 2.0124,-0.35775 2.6263,-0.35974 0.6139,-0.002 1.22105,-0.10429 1.34923,-0.22734 0.12817,-0.12304 1.50255,-0.46219 3.05416,-0.75367 1.55161,-0.29148 3.09709,-0.63039 3.43439,-0.75312 0.33731,-0.12273 1.2569,-0.2793 2.04353,-0.34793 0.78664,-0.0686 1.52049,-0.18055 1.6308,-0.24872 0.16183,-0.10002 2.43556,-0.47605 4.42103,-0.73116 1.05552,-0.13562 4.22949,-0.70785 5.51957,-0.99511 0.80953,-0.18026 2.35501,-0.50385 3.43439,-0.71908 1.07939,-0.21522 2.82261,-0.57325 3.87383,-0.79561 1.72438,-0.36476 1.9484,-0.3672 2.29064,-0.025 0.32158,0.32158 0.32973,0.45876 0.0535,0.90104 -0.1792,0.28694 -0.51353,0.52171 -0.74295,0.52171 -0.22943,0 -0.48648,0.11219 -0.57123,0.24931 -0.0847,0.13713 -0.26168,0.18282 -0.39319,0.10154 -0.13151,-0.0813 -0.39986,-0.0144 -0.59634,0.14869 -0.19647,0.16306 -0.35722,0.21975 -0.35722,0.12597 0,-0.0938 -0.29087,0.0583 -0.64637,0.33794 -0.3555,0.27964 -0.79707,0.50843 -0.98126,0.50843 -0.18419,0 -0.33488,0.12391 -0.33488,0.27535 0,0.19516 -0.10304,0.18984 -0.35377,-0.0182 -0.27818,-0.23087 -0.54025,-0.20511 -1.22657,0.12057 -1.00349,0.47619 -1.11116,0.79362 -0.32085,0.94591 0.30358,0.0585 1.15911,0.22374 1.90119,0.36721 2.63401,0.50927 4.57384,0.74248 7.35941,0.88477 1.55162,0.0793 3.92503,0.28601 5.27426,0.45946 1.34922,0.17346 3.60808,0.34224 5.01968,0.37508 1.41159,0.0328 2.65054,0.11162 2.75321,0.17507 0.10267,0.0635 2.53544,0.0857 5.40616,0.0494 2.87072,-0.0363 7.93909,-0.0574 11.26304,-0.047 5.83236,0.0182 6.07024,0.0379 6.80746,0.56288 0.42016,0.29917 0.76392,0.6347 0.76392,0.74561 0,0.11092 -0.74514,0.21377 -1.65587,0.22856 -7.03721,0.11431 -12.17219,0.29932 -12.41103,0.44716 -0.64227,0.39755 -14.07947,-0.042 -20.14056,-0.65889 -1.34162,-0.13654 -3.43905,-0.30221 -4.66097,-0.36815 -2.05888,-0.11111 -3.62136,-0.37661 -7.35375,-1.24959 -1.63049,-0.38136 -2.84062,-1.33438 -2.84062,-2.2371 0,-0.49016 -0.12284,-0.56739 -0.90251,-0.56739 -0.49638,0 -1.24152,0.10282 -1.65587,0.22849 -0.91534,0.27763 -3.49903,0.72077 -5.16901,0.88657 -0.67461,0.067 -1.72333,0.22486 -2.33048,0.35087 -1.3073,0.27131 -4.87379,0.90722 -7.1141,1.26845 -0.877,0.14141 -1.76438,0.34312 -1.97195,0.44823 -0.20757,0.10512 -0.86568,0.27362 -1.46245,0.37444 -0.59678,0.10083 -1.25488,0.26908 -1.46245,0.3739 -0.35549,0.17951 -3.29604,0.5779 -6.87823,0.93188 -0.87699,0.0867 -3.80236,0.14239 -6.50082,0.12385 -4.12697,-0.0284 -5.49007,-0.13744 -8.58168,-0.6867 -2.15812,-0.38341 -4.0413,-0.85863 -4.56175,-1.15113 -0.867657,-0.48765 -0.929817,-0.48935 -2.948067,-0.0803 -1.13395,0.22981 -3.49681,0.88728 -5.25081,1.46105 -1.75399,0.57376 -3.68584,1.17998 -4.29299,1.34714 -0.60716,0.16717 -1.27831,0.39278 -1.49146,0.50135 -0.80767,0.41141 -3.68785,0.5601 -4.65655,0.2404 -1.07192,-0.35376 -1.34182,-0.20251 -3.78721,2.12232 -0.67461,0.64136 -1.77853,1.54526 -2.45314,2.00866 -0.67461,0.46341 -1.44735,1.04639 -1.7172,1.29552 -0.26984,0.24913 -0.89176,0.78724 -1.38203,1.19581 -0.49027,0.40856 -0.94721,0.99106 -1.01542,1.29444 -0.2721,1.21012 -1.16974,5.79628 -1.42838,7.29772 -0.15106,0.877 -0.64012,2.86404 -1.08679,4.41565 -0.44667,1.55161 -0.93616,3.31788 -1.08775,3.92503 -0.60272,2.41406 -1.29903,3.1459 -2.27572,2.39181 z m 1.64214,-6.5452 c 0.0776,-0.1256 0.0289,-0.2977 -0.10818,-0.38245 -0.13713,-0.0847 -0.24932,0.018 -0.24932,0.22836 0,0.43091 0.1472,0.49435 0.3575,0.15409 z m 0.34484,-2.16345 c 0.53418,-2.70304 1.04682,-5.34235 1.22869,-6.3258 0.10072,-0.54463 0.26897,-1.15178 0.37391,-1.34923 0.10493,-0.19745 -0.0433,-0.083 -0.32948,0.25429 -1.08131,1.27464 -1.41469,2.28054 -1.58545,4.78362 -0.092,1.34922 -0.19176,2.81191 -0.2216,3.25041 -0.0873,1.28356 0.23144,0.91739 0.53393,-0.61329 z m 9.43442,-24.33337 c 0.34345,-0.68846 0.3386,-0.70846 -0.10469,-0.43162 -0.25565,0.15966 -0.46482,0.48452 -0.46482,0.72191 0,0.61626 0.15725,0.53611 0.56951,-0.29029 z m 0.81772,-1.37385 c 0.22821,-0.5947 -0.0902,-0.70206 -0.39473,-0.13308 -0.18987,0.35477 -0.1936,0.51164 -0.0122,0.51164 0.1439,0 0.32701,-0.17035 0.40691,-0.37856 z m -30.13635,-17.90383 c -0.0755,-0.0755 -0.2127,0.0606 -0.30482,0.30256 -0.13313,0.34962 -0.10495,0.37779 0.13733,0.13732 0.16765,-0.1664 0.24302,-0.36435 0.16749,-0.43988 z m 12.5616,-4.58392 c 1.67938,-1.81704 3.05615,-5.29995 2.98552,-7.552631 -0.0674,-2.14774 -0.40149,-3.92805 -0.7361,-3.92198 -0.29239,0.005 -1.15871,1.55092 -1.51078,2.69541 -0.18678,0.60716 -0.42042,1.21431 -0.5192,1.34923 -0.0988,0.13492 -0.30903,0.95996 -0.46719,1.83343 -0.15817,0.873461 -0.4059,1.809191 -0.55051,2.079391 -0.30376,0.56758 -0.62866,1.74956 -0.91368,3.32394 -0.34622,1.91242 0.0787,1.96037 1.71194,0.19321 z M 47.485203,95.238509 c 0.0548,-0.52358 0.10602,-1.04656 0.1138,-1.16219 0.008,-0.11563 0.1947,-0.14094 0.41539,-0.0562 0.36144,0.13869 0.36545,0.10003 0.0403,-0.38961 -0.41483,-0.62477 -1.05493,-0.92978 -0.87545,-0.41716 0.0649,0.18552 0.0211,0.59931 -0.0974,0.91954 -0.19982,0.53979 -0.0272,2.38854 0.20162,2.15969 0.0561,-0.0561 0.14691,-0.53044 0.20173,-1.05402 z m 1.00907,27.690541 c -0.0757,-0.0757 0.0539,-0.28466 0.28791,-0.46443 0.3967,-0.30475 0.38968,-0.33698 -0.10379,-0.47624 -0.53413,-0.15074 -0.81044,-0.74623 -0.8166,-1.75988 -0.003,-0.45505 0.13089,-0.55195 0.76121,-0.55195 0.64395,0 0.7443,0.0774 0.63616,0.49096 -0.0777,0.29705 -0.0297,0.42997 0.12147,0.33654 0.33162,-0.20495 0.67759,0.37224 0.68033,1.13501 0.002,0.42229 -0.22066,0.74007 -0.71345,1.02043 -0.39362,0.22392 -0.77758,0.34523 -0.85324,0.26956 z m 0.10012,-4.21079 c 0,-0.12229 -0.22079,-0.16462 -0.49063,-0.094 -0.4218,0.11031 -0.49063,0.008 -0.49063,-0.73266 0,-0.539 0.13761,-0.91377 0.36797,-1.00217 0.53094,-0.20374 0.455,-0.58251 -0.26018,-1.29768 -0.66398,-0.66398 -0.63647,-0.87067 0.13149,-0.98787 0.56489,-0.0862 0.74853,0.16794 0.87948,1.21716 0.0542,0.43402 0.19672,1.31349 0.31679,1.95437 0.17416,0.92962 0.1503,1.16524 -0.11799,1.16524 -0.18497,0 -0.3363,-0.10005 -0.3363,-0.22234 z m -0.73466,-4.4125 c -0.75027,-0.20876 -0.99017,-1.00738 -0.30261,-1.00738 0.44105,0 1.28258,0.69675 1.28258,1.0619 0,0.18883 -0.13173,0.1815 -0.97997,-0.0545 z"
       id="path9489"
       inkscape:connector-curvature="0" />
  </g>
</svg>
